#!OML:ASF H:\Terrain\Patient Classification 1\Takeo\Monday\TakeoMonday.ASF
:FULLY-SPECIFIED
:DEGREES
95
root 8.6564 18.1788 0.745017 1.43543 0.941453 4.7496
lowerback 4.86727 -4.05765 -3.15119
upperback 0.611159 -5.57929 -0.385817
thorax -1.82836 -2.76283 1.70196
lowerneck -15.7017 3.44753 -1.59183
upperneck -3.63468 4.83703 -2.43833
head 1.51679 2.34091 -0.215947
rclavicle -5.3324e-014 9.54166e-015
rhumerus -76.3823 4.81205 -91.7066
rradius 82.6711
rwrist -12.4418
rhand -39.0345 46.6818
rfingers 7.12502
rthumb -12.0369 17.048
lclavicle -5.3324e-014 9.54166e-015
lhumerus -40.8819 -29.4761 96.1544
lradius 114.966
lwrist 29.2438
lhand -33.1206 0.0332369
lfingers 7.12502
lthumb -6.33065 29.9186
rfemur -31.1494 10.3855 16.4367
rtibia 33.686
rfoot -23.5772 -10.5911
rtoes -23.5656
lfemur 13.5844 0.994047 -29.136
ltibia 44.673
lfoot 6.12214 11.7179
ltoes -13.5297
96
root 8.65308 18.1225 1.14527 0.972602 1.07478 4.83337
lowerback 5.24386 -3.9688 -3.18745
upperback 0.810525 -5.47167 -0.368114
thorax -1.83321 -2.71064 1.75472
lowerneck -15.7721 3.30492 -1.63422
upperneck -3.87245 4.65426 -2.68175
head 1.45456 2.24617 -0.298372
rclavicle -3.89121e-014 3.97569e-015
rhumerus -75.4689 4.59474 -91.854
rradius 83.1603
rwrist -12.3362
rhand -38.7943 47.1681
rfingers 7.12502
rthumb -11.8053 17.5208
lclavicle -3.89121e-014 3.97569e-015
lhumerus -42.4358 -29.2737 97.4055
lradius 114.582
lwrist 29.305
lhand -33.1771 0.577678
lfingers 7.12502
lthumb -6.38518 30.4614
rfemur -29.7834 10.0828 16.6632
rtibia 32.4981
rfoot -23.627 -11.2644
rtoes -22.2483
lfemur 12.9786 1.57738 -28.6467
ltibia 48.1235
lfoot 4.87782 12.4625
ltoes -12.005
97
root 8.65558 18.0697 1.54341 0.6039 1.08309 3.95608
lowerback 5.5574 -3.8696 -2.21486
upperback 0.994356 -5.28356 -0.0843041
thorax -1.88913 -2.62279 1.51447
lowerneck -15.5971 3.18886 -1.95697
upperneck -4.3601 4.53479 -2.59375
head 1.25028 2.20252 -0.232159
rclavicle 2.04251e-014 -3.57812e-015
rhumerus -74.322 4.30885 -91.9592
rradius 83.6355
rwrist -11.9468
rhand -38.7718 47.299
rfingers 7.12502
rthumb -11.7836 17.6505
lclavicle 2.04251e-014 -3.57812e-015
lhumerus -43.9438 -28.9533 98.6388
lradius 114.133
lwrist 29.6725
lhand -33.2267 0.54781
lfingers 7.12502
lthumb -6.43309 30.4301
rfemur -28.473 9.88469 17.9613
rtibia 31.7285
rfoot -23.5698 -11.2846
rtoes -19.0806
lfemur 12.0078 2.15621 -27.1396
ltibia 51.7657
lfoot 4.04424 13.0229
ltoes -11.9232
98
root 8.64764 18.005 1.91609 0.483595 0.850103 2.92215
lowerback 6.02187 -3.70465 -1.30131
upperback 1.04095 -5.00596 0.323188
thorax -2.15257 -2.48574 1.44162
lowerneck -16.0359 3.15104 -2.26632
upperneck -4.14847 4.55297 -2.35244
head 1.38212 2.21489 -0.0922521
rclavicle -5.32743e-014 3.97569e-016
rhumerus -73.014 4.27158 -92.079
rradius 84.0678
rwrist -11.4762
rhand -38.5754 47.4201
rfingers 7.12502
rthumb -11.5942 17.7608
lclavicle -5.32743e-014 3.97569e-016
lhumerus -45.337 -28.5811 99.7333
lradius 113.52
lwrist 30.2349
lhand -33.1345 -0.271551
lfingers 7.12502
lthumb -6.3441 29.6134
rfemur -27.5971 10.2488 19.3019
rtibia 31.2074
rfoot -23.518 -11.1641
rtoes -17.884
lfemur 10.4044 2.91524 -25.3818
ltibia 55.6723
lfoot 3.51974 13.3724
ltoes -11.9503
99
root 8.6421 17.9076 2.31804 -0.0586998 0.883392 3.57201
lowerback 6.3641 -3.56748 -2.02143
upperback 1.34783 -4.87543 0.20519
thorax -1.98112 -2.42094 1.72025
lowerneck -16.5969 3.09576 -2.16893
upperneck -3.82014 4.49225 -2.51963
head 1.59672 2.16817 -0.150961
rclavicle -5.34234e-014 -3.18055e-015
rhumerus -71.4881 4.47186 -92.3084
rradius 84.47
rwrist -11.1537
rhand -38.785 47.6049
rfingers 7.12502
rthumb -11.7964 17.9571
lclavicle -5.34234e-014 -3.18055e-015
lhumerus -46.5971 -28.1741 100.633
lradius 112.728
lwrist 30.7267
lhand -33.0384 -1.3335
lfingers 7.12502
lthumb -6.25131 28.5543
rfemur -26.1759 10.1541 18.8669
rtibia 30.9936
rfoot -23.7994 -12.0869
rtoes -20.5994
lfemur 9.45873 3.46253 -25.5562
ltibia 59.5213
lfoot 2.95516 14.2354
ltoes -10.1129
100
root 8.64682 17.8026 2.72655 -0.461111 1.01936 3.94799
lowerback 6.41492 -3.46363 -2.30922
upperback 1.57714 -4.75576 0.140711
thorax -1.76009 -2.36556 1.79833
lowerneck -16.4217 3.01009 -2.0853
upperneck -4.06023 4.3585 -2.85621
head 1.49617 2.09656 -0.286346
rclavicle -4.03036e-014 -9.14409e-015
rhumerus -69.9659 4.5969 -92.4609
rradius 84.9736
rwrist -10.8278
rhand -39.3745 47.6698
rfingers 7.12502
rthumb -12.3647 18.0555
lclavicle -4.03036e-014 -9.14409e-015
lhumerus -48.1639 -27.5995 101.615
lradius 111.986
lwrist 30.9063
lhand -32.9332 -1.18469
lfingers 7.12502
lthumb -6.1497 28.7061
rfemur -24.8498 10.0407 18.6649
rtibia 31.0605
rfoot -23.8975 -12.8957
rtoes -22.2054
lfemur 8.34533 3.95926 -25.4224
ltibia 63.4698
lfoot 1.03364 14.4161
ltoes -12.4747
101
root 8.6508 17.6946 3.11656 -0.468335 0.980165 3.65067
lowerback 6.50768 -3.33771 -2.01332
upperback 1.51787 -4.56652 0.35817
thorax -1.88681 -2.26971 1.85266
lowerneck -15.9968 2.93678 -2.27471
upperneck -4.45178 4.2711 -2.96773
head 1.2896 2.06383 -0.306226
rclavicle -6.95746e-016 -2.78299e-015
rhumerus -68.3659 5.01028 -92.5309
rradius 85.3739
rwrist -10.5857
rhand -39.5124 47.2784
rfingers 7.12502
rthumb -12.4977 17.6721
lclavicle -6.95746e-016 -2.78299e-015
lhumerus -49.8521 -26.8864 102.613
lradius 111.16
lwrist 31.0604
lhand -32.8831 -0.330784
lfingers 7.12502
lthumb -6.10136 29.5614
rfemur -24.1496 10.3369 19.0832
rtibia 31.5225
rfoot -23.6332 -12.6963
rtoes -22.6837
lfemur 6.57089 4.55204 -24.5197
ltibia 67.5131
lfoot 0.505153 14.4572
ltoes -11.9172
102
root 8.65 17.5722 3.48959 -0.334618 0.829785 3.39242
lowerback 6.685 -3.11797 -1.71829
upperback 1.4194 -4.25465 0.49583
thorax -2.11196 -2.11127 1.82246
lowerneck -15.7741 2.80981 -2.23102
upperneck -4.66189 4.08505 -3.14275
head 1.18655 1.97269 -0.385208
rclavicle 4.7758e-014 -1.31198e-014
rhumerus -66.4506 5.59831 -92.683
rradius 85.6852
rwrist -10.4191
rhand -39.3752 46.9901
rfingers 7.12502
rthumb -12.3655 17.3758
lclavicle 4.7758e-014 -1.31198e-014
lhumerus -51.3244 -26.5793 103.306
lradius 110.122
lwrist 31.51
lhand -33.2925 -0.505701
lfingers 7.12502
lthumb -6.49661 29.3747
rfemur -23.7204 10.5765 19.4687
rtibia 32.0882
rfoot -22.1869 -11.8282
rtoes -23.3911
lfemur 4.33901 5.04774 -23.7428
ltibia 71.7243
lfoot 0.178568 14.6327
ltoes -9.4474
103
root 8.65755 17.4425 3.86281 -0.417421 0.828885 3.52102
lowerback 7.0037 -2.87474 -1.63981
upperback 1.3807 -3.93113 0.468337
thorax -2.35001 -1.94674 1.74571
lowerneck -15.6494 2.55355 -2.32217
upperneck -4.56804 3.76388 -3.14943
head 1.19374 1.81396 -0.390904
rclavicle -2.9271e-014 1.90833e-014
rhumerus -64.453 6.0942 -92.6727
rradius 86.1597
rwrist -10.2203
rhand -39.21 47.272
rfingers 7.12502
rthumb -12.2062 17.6481
lclavicle -2.9271e-014 1.90833e-014
lhumerus -52.9424 -26.4882 104.047
lradius 109.183
lwrist 32.1943
lhand -34.0975 -0.943494
lfingers 7.12502
lthumb -7.27371 28.9115
rfemur -23.2158 9.80004 19.6489
rtibia 33.2478
rfoot -19.9995 -9.9918
rtoes -20.9101
lfemur 2.32217 5.25292 -23.5814
ltibia 75.8383
lfoot -0.248861 14.8731
ltoes -7.8551
104
root 8.65436 17.3224 4.25386 -0.944996 0.196332 2.53456
lowerback 7.60817 -2.53837 -0.706003
upperback 1.49579 -3.4089 0.747186
thorax -2.62591 -1.68971 1.49549
lowerneck -15.5608 2.41541 -2.55941
upperneck -4.37502 3.62265 -2.74844
head 1.22875 1.75512 -0.231522
rclavicle -3.72721e-014 4.77083e-015
rhumerus -62.2419 6.81905 -92.6771
rradius 86.6047
rwrist -9.95972
rhand -39.0315 47.5483
rfingers 7.12502
rthumb -12.034 17.9143
lclavicle -3.72721e-014 4.77083e-015
lhumerus -54.3798 -25.786 104.076
lradius 108.047
lwrist 31.0681
lhand -32.752 0.230097
lfingers 7.12502
lthumb -5.97476 30.1259
rfemur -22.5824 9.34288 21.4289
rtibia 35.2479
rfoot -18.8442 -8.48266
rtoes -16.8181
lfemur 0.866494 6.27999 -21.7441
ltibia 79.9034
lfoot -0.689989 14.2912
ltoes -7.40996
105
root 8.65195 17.2093 4.64082 -1.54001 -0.463606 1.98729
lowerback 8.25157 -2.24197 -0.129807
upperback 1.8011 -2.96698 0.755901
thorax -2.7095 -1.47383 1.1613
lowerneck -15.1849 2.46461 -2.28199
upperneck -4.92456 3.61261 -2.60046
head 0.985255 1.76446 -0.242671
rclavicle -7.40473e-015 7.15625e-015
rhumerus -59.2181 7.79481 -92.9628
rradius 86.7242
rwrist -9.71409
rhand -39.0819 47.6853
rfingers 7.12502
rthumb -12.0826 18.0541
lclavicle -7.40473e-015 7.15625e-015
lhumerus -55.5357 -25.2182 103.598
lradius 106.918
lwrist 30.1596
lhand -31.8576 1.78139
lfingers 7.12502
lthumb -5.11127 31.6997
rfemur -22.1017 9.20625 22.6719
rtibia 37.9624
rfoot -19.2468 -7.15605
rtoes -8.56582
lfemur -0.540078 7.20241 -20.4442
ltibia 83.8004
lfoot -1.2304 13.6248
ltoes -6.22922
106
root 8.64995 17.09 5.00679 -1.76175 -1.21691 1.79618
lowerback 8.66919 -1.85299 0.0456281
upperback 2.11778 -2.43483 0.7429
thorax -2.63164 -1.21116 1.00307
lowerneck -14.6368 2.5287 -1.83143
upperneck -6.18421 3.57327 -2.88891
head 0.497071 1.7584 -0.428956
rclavicle -5.86415e-015 9.54166e-015
rhumerus -55.7026 8.98231 -93.0853
rradius 86.9738
rwrist -9.50729
rhand -38.7787 48.076
rfingers 7.12502
rthumb -11.7903 18.4279
lclavicle -5.86415e-015 9.54166e-015
lhumerus -56.1179 -24.8908 103.071
lradius 105.425
lwrist 29.4601
lhand -31.468 3.29214
lfingers 7.12502
lthumb -4.73501 33.2192
rfemur -22.1084 10.2724 23.2814
rtibia 40.9288
rfoot -19.7972 -7.13686
rtoes -5.12433
lfemur -2.68412 7.96485 -19.8107
ltibia 87.7511
lfoot -1.6045 12.8992
ltoes -6.65347
107
root 8.65738 16.9638 5.34864 -2.28563 -1.76202 1.14724
lowerback 9.73138 -1.68681 0.522801
upperback 2.41717 -2.1521 1.03758
thorax -2.91943 -1.07187 1.03925
lowerneck -14.2257 2.74422 -1.5562
upperneck -7.37272 3.76617 -3.18112
head 0.0609555 1.86786 -0.572816
rclavicle 4.22417e-015 -1.78906e-014
rhumerus -52.257 10.8054 -92.9283
rradius 87.5567
rwrist -9.34806
rhand -38.3299 48.4521
rfingers 7.12502
rthumb -11.3574 18.7796
lclavicle 4.22417e-015 -1.78906e-014
lhumerus -56.6816 -24.2157 102.774
lradius 103.588
lwrist 29.7679
lhand -32.2981 2.27796
lfingers 7.12502
lthumb -5.53656 32.1856
rfemur -21.6747 11.6585 24.3739
rtibia 43.5577
rfoot -20.1793 -8.34535
rtoes -5.89661
lfemur -4.7252 8.49185 -18.781
ltibia 91.7232
lfoot -1.76923 11.8327
ltoes -8.48034
108
root 8.68145 16.8197 5.67235 -2.85409 -2.78799 -0.889315
lowerback 11.0549 -1.56147 2.57528
upperback 2.65745 -1.71441 1.66696
thorax -3.44428 -0.866452 0.520442
lowerneck -14.0879 2.96993 -1.26101
upperneck -8.06092 3.99197 -3.43543
head -0.165752 1.98269 -0.699509
rclavicle -1.04362e-014 -3.97569e-016
rhumerus -48.6444 12.9626 -92.5985
rradius 88.0884
rwrist -9.22806
rhand -38.8515 48.255
rfingers 7.12502
rthumb -11.8604 18.6109
lclavicle -1.04362e-014 -3.97569e-016
lhumerus -57.8017 -23.3768 102.833
lradius 101.772
lwrist 31.4476
lhand -33.6328 -1.94504
lfingers 7.12502
lthumb -6.82514 27.925
rfemur -20.4331 12.8781 27.1349
rtibia 45.441
rfoot -20.9651 -8.80196
rtoes -5.8238
lfemur -6.64038 9.37008 -16.0634
ltibia 95.7746
lfoot -2.50219 10.5704
ltoes -8.07415
109
root 8.71194 16.7305 6.01569 -2.42293 -4.60822 -3.38243
lowerback 11.4352 -1.1351 5.2974
upperback 2.62161 -0.786315 2.34703
thorax -3.70293 -0.430755 -0.420118
lowerneck -13.7555 3.07056 -1.1875
upperneck -8.71035 4.08508 -3.54199
head -0.418398 2.04029 -0.752872
rclavicle -2.37548e-014 1.59028e-015
rhumerus -45.0071 14.9708 -92.0319
rradius 88.6528
rwrist -9.03088
rhand -39.5164 48.1156
rfingers 7.12502
rthumb -12.5016 18.5096
lclavicle -2.37548e-014 1.59028e-015
lhumerus -58.7487 -22.1537 102.291
lradius 100.415
lwrist 30.4638
lhand -33.6537 1.24473
lfingers 7.12502
lthumb -6.8453 31.1141
rfemur -19.8016 13.2031 30.1947
rtibia 46.3999
rfoot -21.6459 -7.75729
rtoes -4.19028
lfemur -9.2321 10.8943 -12.8519
ltibia 99.3826
lfoot -3.77138 9.79947
ltoes -7.10583
